<svg xmlns="http://www.w3.org/2000/svg" width="0" height="0"><symbol viewBox="0 0 24 24" id="icon--general__cart"><title>cart</title><path style="stroke:none!important" d="M21.799,4.397C21.609,4.147,21.313,4,21,4H5H4H2v2h2h0.3l3.761,10.342C8.204,16.737,8.579,17,9,17h9v-2H9.7l-0.728-2H19 c0.446,0,0.839-0.296,0.962-0.726l2-7C22.048,4.973,21.987,4.648,21.799,4.397z"/><circle style="stroke:none!important" cx="10.5" cy="20.5" r="1.5"/><circle cx="16.5" cy="20.5" r="1.5" style="stroke:none!important"/></symbol><symbol viewBox="0 0 24 24" id="icon--general__chevron-left"><title>chevron-left</title><path d="M13.293 6.293L7.586 12l5.707 5.707 1.414-1.414L10.414 12l4.293-4.293z"/></symbol><symbol viewBox="0 0 24 24" id="icon--general__chevron-right"><title>chevron-right</title><path d="M10.707 17.707L16.414 12l-5.707-5.707-1.414 1.414L13.586 12l-4.293 4.293z"/></symbol><symbol viewBox="0 0 24 24" id="icon--general__email-share-icon"><title>email-share-icon</title><path d="M12,13.648l9.925-9.022C21.776,4.26,21.42,4,21,4H3C2.581,4,2.224,4.26,2.076,4.626L12,13.648z"/><path d="M12,16.352L2,7.261V19c0,0.553,0.448,1,1,1h18c0.553,0,1-0.447,1-1V7.261L12,16.352z"/></symbol><symbol viewBox="0 0 24 24" id="icon--general__facebook-share-icon"><title>facebook-share-icon</title><path d="M20,3H4C3.447,3,3,3.448,3,4v16c0,0.552,0.447,1,1,1h8.615v-6.96h-2.338v-2.725h2.338v-2c0-2.325,1.42-3.592,3.5-3.592	c0.699-0.002,1.399,0.034,2.095,0.107v2.42h-1.435c-1.128,0-1.348,0.538-1.348,1.325v1.735h2.697l-0.35,2.725h-2.348V21H20	c0.553,0,1-0.448,1-1V4C21,3.448,20.553,3,20,3z"/></symbol><symbol viewBox="0 0 24 24" id="icon--general__google-share-icon"><title>google-share-icon</title><path d="M22.014,11.974C21.996,6.462,17.521,2,12.008,2C6.493,2,2.019,6.462,2.001,11.974C2.001,11.964,2,11.957,2,11.948v0.054	c0,0,0,0.001,0,0.003c0,0,0,0.001,0,0.001v0.054c0-0.007,0-0.015,0.001-0.023c0.017,5.513,4.491,9.977,10.007,9.977	c5.514,0,9.988-4.462,10.006-9.974c0,0.009,0.001,0.017,0.001,0.026v-0.054c0-0.001,0-0.003,0-0.005s0-0.003,0-0.005v-0.054	C22.015,11.958,22.014,11.965,22.014,11.974z M9.281,16.557c-2.509,0-4.548-2.039-4.548-4.549s2.039-4.549,4.548-4.549	c1.23,0,2.258,0.451,3.046,1.188l-1.295,1.255c-0.325-0.309-0.899-0.673-1.751-0.673c-1.505,0-2.733,1.251-2.733,2.785	c0,1.533,1.229,2.784,2.733,2.784c1.742,0,2.384-1.206,2.502-1.92H9.279v-0.004V11.18h4.255c0.066,0.286,0.115,0.554,0.115,0.932	C13.649,14.709,11.907,16.557,9.281,16.557z M19.739,12.462H17.92v1.819h-1.364v-1.819h-1.82v-1.364h1.82v-1.82h1.364v1.82h1.819	V12.462z"/></symbol><symbol viewBox="0 0 24 24" id="icon--general__linkedin-share-icon"><title>linkedin-share-icon</title><path d="M19.668,3H4.328C3.595,3,3,3.581,3,4.298v15.403C3,20.417,3.595,21,4.328,21h15.34c0.733,0,1.331-0.582,1.331-1.299V4.298 C20.999,3.581,20.401,3,19.668,3z M8.339,18.337H5.667v-8.59h2.672V18.337z M7.003,8.574c-0.856,0-1.548-0.694-1.548-1.548 s0.691-1.548,1.548-1.548c0.854,0,1.548,0.693,1.548,1.548S7.857,8.574,7.003,8.574z M18.338,18.337h-2.669V14.16 c0-0.996-0.018-2.277-1.388-2.277c-1.39,0-1.601,1.086-1.601,2.207v4.248h-2.667v-8.59h2.56v1.174h0.037 c0.355-0.675,1.227-1.387,2.524-1.387c2.704,0,3.203,1.778,3.203,4.092V18.337z"/></symbol><symbol viewBox="0 0 20 20" id="icon--general__locked"><title>locked</title> <path style="stroke:none!important" d="M15.8,8H14V5.6C14,2.703,12.665,1,10,1C7.334,1,6,2.703,6,5.6V8H4C3.447,8,3,8.646,3,9.199V17
	c0,0.549,0.428,1.139,0.951,1.307l1.197,0.387C5.672,18.861,6.55,19,7.1,19h5.8c0.549,0,1.428-0.139,1.951-0.307l1.196-0.387
	C16.571,18.139,17,17.549,17,17V9.199C17,8.646,16.352,8,15.8,8z M12,8H8V5.199C8,3.754,8.797,3,10,3s2,0.754,2,2.199V8z"/> </symbol><symbol viewBox="0 0 20 20" id="icon--general__megaphone"><title>megaphone</title> <path style="stroke:none!important" d="M17.223,7.03c-1.584-3.686-4.132-6.49-5.421-5.967c-2.189,0.891,1.304,5.164-9.447,9.533
	c-0.929,0.379-1.164,1.888-0.775,2.792c0.388,0.902,1.658,1.801,2.587,1.424c0.161-0.066,0.751-0.256,0.751-0.256
	c0.663,0.891,1.357,0.363,1.604,0.928c0.296,0.68,0.939,2.158,1.158,2.66c0.219,0.502,0.715,0.967,1.075,0.83
	c0.359-0.137,1.582-0.602,2.05-0.779c0.468-0.178,0.579-0.596,0.436-0.924c-0.154-0.355-0.786-0.459-0.967-0.873
	c-0.18-0.412-0.769-1.738-0.938-2.156c-0.23-0.568,0.259-1.031,0.97-1.104c4.894-0.512,5.809,2.512,7.475,1.834
	C19.068,14.447,18.806,10.713,17.223,7.03z M16.672,13.006c-0.287,0.115-2.213-1.402-3.443-4.267
	c-1.231-2.863-1.076-5.48-0.79-5.597c0.286-0.115,2.165,1.717,3.395,4.58C17.065,10.585,16.958,12.889,16.672,13.006z"/> </symbol><symbol viewBox="0 0 24 24" id="icon--general__play-sign"><title>play-sign</title><path d="M12,2C6.486,2,2,6.486,2,12s4.486,10,10,10s10-4.486,10-10S17.514,2,12,2z M10,16V8l6,4L10,16z"/></symbol><symbol viewBox="0 0 16 16" id="icon--general__search-alt"><title>bx-search-alt</title>  <path d="M6.667 12c1.237-0 2.374-0.424 3.276-1.134l-0.011 0.009 2.931 2.931 0.943-0.943-2.931-2.931c0.702-0.89 1.126-2.028 1.126-3.265v-0c0-2.941-2.393-5.333-5.333-5.333s-5.333 2.393-5.333 5.333 2.393 5.333 5.333 5.333zM6.667 2.667c2.206 0 4 1.794 4 4s-1.794 4-4 4-4-1.794-4-4 1.794-4 4-4z"/> <path d="M7.608 5.724c0.253 0.253 0.392 0.588 0.392 0.943h1.333c0-0.001 0-0.003 0-0.004 0-0.735-0.299-1.4-0.783-1.881l-0-0c-1.009-1.008-2.759-1.008-3.768 0l0.941 0.944c0.507-0.505 1.38-0.504 1.884-0.001z"/> </symbol><symbol viewBox="0 0 24 24" id="icon--general__shirt"><title>shirt</title><path style="stroke:none!important" d="M21.515,5.143l-5-3c-0.259-0.155-0.574-0.182-0.857-0.08c-0.283,0.103-0.506,0.331-0.604,0.615C15.021,2.773,14.224,5,12,5 S8.979,2.773,8.948,2.684C8.853,2.396,8.632,2.167,8.347,2.062C8.063,1.957,7.746,1.987,7.485,2.143l-5,3C2.185,5.323,2,5.649,2,6 v4c0,0.347,0.18,0.668,0.475,0.851c0.294,0.181,0.662,0.198,0.973,0.044L6,9.618V21c0,0.552,0.447,1,1,1h10c0.553,0,1-0.448,1-1 V9.618l2.553,1.276c0.311,0.154,0.679,0.138,0.973-0.044C21.82,10.668,22,10.347,22,10V6C22,5.649,21.815,5.323,21.515,5.143z"/></symbol><symbol viewBox="0 0 24 24" id="icon--general__star"><title>star</title><path d="M6.855,14.365l-1.817,6.36c-0.115,0.402,0.034,0.835,0.372,1.082c0.34,0.247,0.797,0.257,1.145,0.024L12,18.202l5.445,3.63 C17.613,21.944,17.807,22,18,22c0.207,0,0.414-0.064,0.59-0.192c0.338-0.247,0.487-0.68,0.372-1.082l-1.817-6.36l4.48-3.584 c0.308-0.247,0.442-0.651,0.343-1.033s-0.414-0.67-0.804-0.734l-5.497-0.916l-2.772-5.545c-0.34-0.678-1.449-0.678-1.789,0 L8.333,8.098L2.836,9.014c-0.39,0.064-0.704,0.353-0.804,0.734s0.035,0.786,0.343,1.033L6.855,14.365z"/></symbol><symbol viewBox="0 0 24 24" id="icon--general__tv"><title>tv</title><path style="stroke:none!important" d="M21,6h-8.586l2.293-2.293l-1.414-1.414L10,5.586L6.707,2.293L5.293,3.707L7.586,6H3C2.447,6,2,6.447,2,7v12 c0,0.553,0.447,1,1,1h18c0.553,0,1-0.447,1-1V7C22,6.447,21.553,6,21,6z M20,9v2h-3V9H20z M17,13h3v2h-3V13z M4,8h11v10H4V8z"/></symbol><symbol viewBox="0 0 24 24" id="icon--general__twitter-share-icon"><title>twitter-share-icon</title><path d="M18.75,21H5.25C4.008,21,3,19.992,3,18.75V5.25C3,4.008,4.008,3,5.25,3h13.5C19.992,3,21,4.008,21,5.25v13.5	C21,19.992,19.992,21,18.75,21z M9.912,16.572c4.243,0,6.566-3.52,6.566-6.565c0-0.1,0-0.198-0.006-0.297	c0.45-0.324,0.842-0.733,1.152-1.197c-0.414,0.185-0.859,0.306-1.327,0.365c0.477-0.284,0.841-0.738,1.017-1.279	c-0.445,0.266-0.94,0.455-1.467,0.559c-0.424-0.45-1.021-0.729-1.683-0.729c-1.273,0-2.31,1.035-2.31,2.309	c0,0.18,0.023,0.355,0.06,0.526c-1.917-0.094-3.619-1.017-4.757-2.412C6.959,8.193,6.848,8.589,6.848,9.012	c0,0.801,0.41,1.507,1.025,1.921c-0.377-0.014-0.733-0.117-1.044-0.288c0,0.009,0,0.018,0,0.032c0,1.116,0.797,2.052,1.851,2.263	c-0.194,0.054-0.396,0.081-0.608,0.081c-0.148,0-0.292-0.013-0.432-0.041c0.293,0.918,1.147,1.584,2.155,1.602	c-0.792,0.621-1.787,0.99-2.866,0.99c-0.185,0-0.369-0.009-0.55-0.031C7.396,16.189,8.611,16.572,9.912,16.572"/></symbol><symbol viewBox="0 0 20 20" id="icon--general__unlocked"><title>unlocked</title> <path style="stroke:none!important" d="M15.8,8H14V5.6C14,2.703,12.665,1,10,1C7.334,1,6,2.703,6,5.6V6h2V5.199C8,3.754,8.797,3,10,3
	s2,0.754,2,2.199V8H4C3.447,8,3,8.646,3,9.199V17c0,0.549,0.428,1.139,0.951,1.307l1.197,0.387C5.672,18.861,6.55,19,7.1,19h5.8
	c0.549,0,1.428-0.139,1.951-0.307l1.196-0.387C16.571,18.139,17,17.549,17,17V9.199C17,8.646,16.352,8,15.8,8z"/> </symbol><symbol viewBox="0 0 24 24" id="icon--general__user-sign"><title>user-sign</title><path d="M12,1.945C6.55,1.945,1.945,6.55,1.945,12S6.55,22.055,12,22.055S22.055,17.45,22.055,12S17.45,1.945,12,1.945z M12,7 c1.727,0,3,1.272,3,3s-1.273,3-3,3c-1.726,0-3-1.272-3-3S10.274,7,12,7z M12,14c2.234,0,3.883,1.365,4.598,3.293 c-1.246,1.089-2.858,1.762-4.598,1.762s-3.352-0.673-4.598-1.762C8.117,15.364,9.766,14,12,14z"/></symbol><symbol viewBox="0 0 24 24" id="icon--general__user"><title>user</title><path d="M12 2C6.579 2 2 6.579 2 12c0 3.189 1.592 6.078 4 7.924V20h.102C7.77 21.245 9.813 22 12 22s4.23-.755 5.898-2H18v-.076c2.408-1.846 4-4.734 4-7.924 0-5.421-4.579-10-10-10zM8.045 18.909C8.266 16.883 9.606 15 12 15s3.734 1.883 3.955 3.909C14.779 19.597 13.428 20 12 20s-2.779-.403-3.955-1.091zM10 11c0-1.178.822-2 2-2s2 .822 2 2-.822 2-2 2-2-.822-2-2zm7.734 6.508c-.453-1.635-1.461-2.957-2.811-3.736C15.594 13.063 16 12.1 16 11c0-2.28-1.72-4-4-4s-4 1.72-4 4c0 1.1.406 2.063 1.076 2.771-1.35.779-2.357 2.102-2.811 3.736C4.873 16.061 4 14.112 4 12c0-4.337 3.663-8 8-8s8 3.663 8 8c0 2.112-.873 4.061-2.266 5.508z"/></symbol></svg>